<svg width="164" height="43" viewBox="0 0 164 43" fill="none" xmlns="http://www.w3.org/2000/svg">
<path d="M39.9819 0.297363C35.1784 0.297363 27.4155 6.75057 27.4155 11.6197C27.4155 12.9414 28.4748 13.8892 30.5672 13.8892C32.6214 13.8892 37.5834 12.8277 37.5834 18.2326C37.5834 20.1041 36.5274 21.815 34.9422 21.815C28.8465 21.815 16.9743 0.297363 9.2245 0.297363C4.56415 0.297363 0 10.4074 0 21.2979C0 34.0972 3.81311 42.2974 9.65522 42.2974C14.4588 42.2974 22.2217 35.8442 22.2217 30.975C22.2217 29.6533 21.1623 28.7055 19.0699 28.7055C17.0158 28.7055 12.0537 29.767 12.0537 24.3633C12.0537 22.4917 13.1087 20.7797 14.6949 20.7797C20.7896 20.7797 32.6629 42.2974 40.4127 42.2974C45.073 42.2974 49.6372 32.1874 49.6372 21.2979C49.6361 8.49862 45.824 0.297363 39.9819 0.297363Z" fill="url(#paint0_linear_2825_43207)"/>
<path d="M94.3612 13.2465H54.6001V33.1276H94.3612V13.2465Z" fill="#0C2B6B"/>
<path d="M58.5161 28.7831L62.8496 17.5908H64.6086L68.9103 28.7831H67.0716L66.0166 26.0009H61.3311L60.2762 28.7831H58.5161ZM62.8168 22.0992L61.9696 24.3381H65.3913L64.5124 22.0358C64.4807 21.9615 64.4162 21.7745 64.3211 21.4761C64.2248 21.1776 64.1188 20.8475 64.0018 20.4845C63.8849 20.1216 63.7777 19.8024 63.6815 19.5247C63.5963 19.8013 63.5001 20.1063 63.394 20.4364C63.2869 20.7666 63.183 21.0814 63.0824 21.3799C62.9797 21.6783 62.8911 21.9188 62.8168 22.0992Z" fill="white"/>
<path d="M70.8594 28.7831V17.5908H72.4106L78.9185 26.3048C78.8332 25.6543 78.772 24.9033 78.7349 24.0506C78.6977 23.1979 78.6791 22.2708 78.6791 21.2684V17.5908H80.4064V28.7831H78.8234L72.3155 20.2451C72.3899 21.1722 72.4489 21.8893 72.4915 22.3955C72.5342 22.9016 72.5604 23.2799 72.5713 23.5302C72.5823 23.7806 72.5877 23.9806 72.5877 24.1304V28.7831H70.8594Z" fill="white"/>
<path d="M85.4887 28.7831V19.2536H82.3545V17.5908H90.4453V19.2536H87.2149V28.7831H85.4887Z" fill="white"/>
<path d="M163.549 13.2465H98.2769V14.0522H163.549V13.2465Z" fill="#0C2B6B"/>
<path d="M163.549 32.3219H98.2769V33.1276H163.549V32.3219Z" fill="#0C2B6B"/>
<path d="M104.082 28.7831C102.952 28.7831 101.95 28.535 101.076 28.0398C100.201 27.5445 99.5169 26.8624 99.0217 25.9933C98.5265 25.1242 98.2783 24.1206 98.2783 22.9793C98.2783 22.1474 98.427 21.3799 98.7254 20.677C99.0239 19.973 99.4393 19.363 99.9728 18.8459C100.505 18.3288 101.132 17.9265 101.852 17.639C102.571 17.3515 103.352 17.2072 104.195 17.2072C104.994 17.2072 105.765 17.3646 106.506 17.6794C107.247 17.9943 107.857 18.4337 108.337 18.9978L106.674 20.9011C106.344 20.5393 105.973 20.2539 105.562 20.0451C105.152 19.8374 104.691 19.7336 104.179 19.7336C103.603 19.7336 103.082 19.8669 102.613 20.1337C102.144 20.4004 101.771 20.7787 101.493 21.2695C101.216 21.7604 101.078 22.3409 101.078 23.0121C101.078 23.6735 101.217 24.2463 101.493 24.7306C101.771 25.216 102.159 25.5921 102.661 25.8577C103.162 26.1245 103.743 26.2578 104.404 26.2578C104.915 26.2578 105.39 26.154 105.827 25.9463C106.264 25.7386 106.632 25.474 106.93 25.1548L108.241 27.233C107.974 27.5314 107.62 27.7982 107.177 28.0321C106.734 28.2671 106.245 28.4508 105.706 28.5842C105.167 28.7165 104.625 28.7831 104.082 28.7831Z" fill="#0C2B6B"/>
<path d="M110.424 28.6235V17.4302H118.227V19.7489H113.063V21.8271H117.508V24.0332H113.063V26.3038H118.388V28.6225H110.424V28.6235Z" fill="#0C2B6B"/>
<path d="M120.475 28.6235V17.4302H122.905L128.134 24.5612C128.08 24.1031 128.037 23.6582 128.006 23.2264C127.974 22.7946 127.95 22.3365 127.934 21.8511C127.917 21.3668 127.915 20.8148 127.926 20.196V17.4302H130.564V28.6225H128.102L122.921 21.6347C122.975 22.1572 123.014 22.5912 123.041 22.9378C123.068 23.2843 123.086 23.6035 123.097 23.8976C123.108 24.1906 123.114 24.5185 123.114 24.8815V28.6235H120.475Z" fill="#0C2B6B"/>
<path d="M135.978 28.6235V19.8287H132.653V17.4302H142.103V19.8287H138.697V28.6235H135.978Z" fill="#0C2B6B"/>
<path d="M144.192 28.6235V17.4302H151.995V19.7489H146.831V21.8271H151.276V24.0332H146.831V26.3038H152.156V28.6225H144.192V28.6235Z" fill="#0C2B6B"/>
<path d="M154.243 28.6235V17.4302H159.28C160.005 17.4302 160.652 17.5843 161.223 17.8937C161.792 18.2031 162.246 18.6272 162.582 19.1651C162.917 19.7041 163.086 20.3141 163.086 20.9962C163.086 21.7429 162.899 22.4065 162.526 22.987C162.153 23.5685 161.657 24.008 161.039 24.3065L163.549 28.6235H160.448L158.225 24.6902H156.834V28.6235H154.243ZM156.834 22.6109H159.04C159.466 22.6109 159.802 22.4753 160.047 22.2031C160.291 21.9309 160.414 21.5767 160.414 21.1405C160.414 20.7032 160.27 20.3545 159.982 20.0932C159.695 19.832 159.3 19.7019 158.799 19.7019H156.832V22.6109H156.834Z" fill="#0C2B6B"/>
<defs>
<linearGradient id="paint0_linear_2825_43207" x1="0" y1="21.2979" x2="49.6366" y2="21.2979" gradientUnits="userSpaceOnUse">
<stop offset="1.4385e-07" stop-color="#FF7F4A"/>
<stop offset="0.3045" stop-color="#FE3EA1"/>
<stop offset="0.6173" stop-color="#883FFF"/>
<stop offset="1" stop-color="#4ECAFE"/>
</linearGradient>
</defs>
</svg>
